<svg width="20" height="20" viewBox="0 0 20 20" fill="none" xmlns="http://www.w3.org/2000/svg">
<g clip-path="url(#clip0_7480_445)">
<path d="M18.8749 11.9915L9.99994 18.4415L1.12494 11.9915C1.00596 11.904 0.917703 11.7811 0.872799 11.6404C0.827895 11.4997 0.828644 11.3484 0.874937 11.2082L1.8916 8.05818L3.92494 1.79985C3.94466 1.74885 3.97605 1.70319 4.0166 1.66651C4.08264 1.6062 4.16884 1.57275 4.25827 1.57275C4.3477 1.57275 4.4339 1.6062 4.49994 1.66651C4.54276 1.7079 4.57431 1.75953 4.5916 1.81651L6.62494 8.05818H13.3749L15.4083 1.79985C15.428 1.74885 15.4594 1.70319 15.4999 1.66651C15.566 1.6062 15.6522 1.57275 15.7416 1.57275C15.831 1.57275 15.9172 1.6062 15.9833 1.66651C16.0261 1.7079 16.0576 1.75953 16.0749 1.81651L18.1083 8.07485L19.1666 11.2082C19.2087 11.3528 19.2031 11.507 19.1505 11.6482C19.098 11.7893 19.0013 11.9097 18.8749 11.9915Z" stroke="#555555" stroke-width="1.6" stroke-linecap="round" stroke-linejoin="round"/>
</g>
<defs>
<clipPath id="clip0_7480_445">
<rect width="20" height="20" fill="white"/>
</clipPath>
</defs>
</svg>
